<svg width="1280" height="640" viewBox="0 0 1280 640" fill="none" xmlns="http://www.w3.org/2000/svg">
  <rect width="1280" height="640" rx="32" fill="#0F172A"/>
  <rect x="28" y="28" width="1224" height="584" rx="28" fill="url(#bg)"/>
  <circle cx="1096" cy="118" r="152" fill="#F59E0B" fill-opacity="0.16"/>
  <circle cx="1004" cy="500" r="184" fill="#14B8A6" fill-opacity="0.14"/>
  <circle cx="173" cy="552" r="132" fill="#FB7185" fill-opacity="0.12"/>
  <text x="92" y="170" fill="#E5E7EB" font-size="28" font-family="Georgia, 'Times New Roman', serif" letter-spacing="6">
    MODULAR TYPST RESUME
  </text>
  <text x="92" y="274" fill="white" font-size="68" font-family="Georgia, 'Times New Roman', serif" font-weight="700">
    One resume system.
  </text>
  <text x="92" y="350" fill="white" font-size="68" font-family="Georgia, 'Times New Roman', serif" font-weight="700">
    Multiple targeted versions.
  </text>
  <text x="92" y="414" fill="#CBD5E1" font-size="28" font-family="Helvetica, Arial, sans-serif">
    A clean Typst template for role-specific one-page resumes with modular work and project blocks.
  </text>
  <g>
    <rect x="92" y="474" width="150" height="46" rx="23" fill="#F8FAFC" fill-opacity="0.1" stroke="#E2E8F0" stroke-opacity="0.18"/>
    <text x="129" y="504" fill="#F8FAFC" font-size="22" font-family="Helvetica, Arial, sans-serif">Typst</text>
    <rect x="258" y="474" width="168" height="46" rx="23" fill="#F8FAFC" fill-opacity="0.1" stroke="#E2E8F0" stroke-opacity="0.18"/>
    <text x="292" y="504" fill="#F8FAFC" font-size="22" font-family="Helvetica, Arial, sans-serif">Modular</text>
    <rect x="442" y="474" width="191" height="46" rx="23" fill="#F8FAFC" fill-opacity="0.1" stroke="#E2E8F0" stroke-opacity="0.18"/>
    <text x="475" y="504" fill="#F8FAFC" font-size="22" font-family="Helvetica, Arial, sans-serif">Role-specific</text>
    <rect x="649" y="474" width="175" height="46" rx="23" fill="#F8FAFC" fill-opacity="0.1" stroke="#E2E8F0" stroke-opacity="0.18"/>
    <text x="689" y="504" fill="#F8FAFC" font-size="22" font-family="Helvetica, Arial, sans-serif">One-page</text>
  </g>
  <g opacity="0.98">
    <rect x="792" y="124" width="334" height="392" rx="22" fill="#FFFDF8"/>
    <rect x="824" y="162" width="208" height="22" rx="11" fill="#0F172A"/>
    <rect x="824" y="198" width="242" height="8" rx="4" fill="#94A3B8"/>
    <rect x="824" y="214" width="210" height="8" rx="4" fill="#CBD5E1"/>
    <rect x="824" y="248" width="178" height="12" rx="6" fill="#1D4ED8"/>
    <rect x="824" y="274" width="270" height="7" rx="3.5" fill="#94A3B8"/>
    <rect x="824" y="290" width="282" height="7" rx="3.5" fill="#CBD5E1"/>
    <rect x="824" y="306" width="248" height="7" rx="3.5" fill="#CBD5E1"/>
    <rect x="824" y="340" width="165" height="12" rx="6" fill="#1D4ED8"/>
    <rect x="824" y="366" width="274" height="7" rx="3.5" fill="#94A3B8"/>
    <rect x="824" y="382" width="286" height="7" rx="3.5" fill="#CBD5E1"/>
    <rect x="824" y="398" width="260" height="7" rx="3.5" fill="#CBD5E1"/>
    <rect x="824" y="432" width="148" height="12" rx="6" fill="#1D4ED8"/>
    <rect x="824" y="458" width="242" height="7" rx="3.5" fill="#94A3B8"/>
    <rect x="824" y="474" width="276" height="7" rx="3.5" fill="#CBD5E1"/>
  </g>
  <defs>
    <linearGradient id="bg" x1="96" y1="76" x2="1147" y2="574" gradientUnits="userSpaceOnUse">
      <stop stop-color="#111827"/>
      <stop offset="0.52" stop-color="#0F172A"/>
      <stop offset="1" stop-color="#1E293B"/>
    </linearGradient>
  </defs>
</svg>
